<svg width="60" height="60" viewBox="0 0 60 60" fill="none" xmlns="http://www.w3.org/2000/svg">
<g clip-path="url(#clip0)">
<path d="M47.5469 5.7799C45.9549 4.37675 44.5824 3.16239 44.5824 1.32554C44.5742 0.920408 44.2477 0.593857 43.8425 0.585693C42.7659 0.585693 36.4492 7.35142 36.4492 11.9384C36.4477 16.033 39.7656 19.3535 43.8601 19.355C47.9547 19.3565 51.2751 16.0386 51.2767 11.9441C51.2767 11.9421 51.2767 11.9402 51.2767 11.9384C51.2767 9.08113 49.297 7.32591 47.5469 5.7799Z" fill="#ED394A"/>
<path d="M37.7964 23.531C33.2808 19.5409 28.9897 15.7754 28.9897 10.025C28.9953 9.60244 28.6573 9.2551 28.2347 9.24949C28.2278 9.24936 28.2211 9.24936 28.2142 9.24949C26.4283 9.24949 8.72314 27.3884 8.72314 39.8637C8.72123 50.6592 17.4713 59.4123 28.2668 59.4142C39.0624 59.4162 47.8155 50.6661 47.8174 39.8705C47.8174 39.8682 47.8174 39.866 47.8174 39.8637C47.8378 32.3938 42.7355 27.8884 37.7964 23.531ZM28.2907 53.788C27.892 53.788 27.5687 53.4648 27.5687 53.066C27.5687 52.6673 27.892 52.344 28.2907 52.344C34.5676 52.3384 39.6554 47.2529 39.6639 40.976C39.6639 40.5772 39.9871 40.254 40.3858 40.254C40.7846 40.254 41.1078 40.5772 41.1078 40.976C41.0994 48.0504 35.3651 53.7824 28.2907 53.788Z" fill="#ED394A"/>
</g>
<defs>
<clipPath id="clip0">
<rect width="58.8286" height="58.8286" fill="white" transform="translate(0.585938 0.585693)"/>
</clipPath>
</defs>
</svg>
